# Blender 4.0.1
# www.blender.org
mtllib Monitor.mtl
o Cube
v -0.199123 -0.850000 0.425000
v -0.199123 -0.850000 -0.425000
v -0.599561 -0.925000 0.000000
v 0.201316 -0.775000 0.000000
v 0.201316 -0.775000 -0.387500
v -0.599561 -0.925000 -0.462500
v -0.599561 -0.925000 0.462500
v 0.201316 -0.775000 0.387500
v -0.199123 -0.850000 -0.212500
v 0.001096 -0.812500 0.000000
v -0.199123 -0.850000 0.212500
v -0.399342 -0.887500 0.000000
v 0.201316 -0.775000 -0.193750
v 0.001096 -0.812500 -0.406250
v -0.599561 -0.925000 -0.231250
v -0.399342 -0.887500 -0.443750
v -0.599561 -0.925000 0.231250
v -0.399342 -0.887500 0.443750
v 0.201316 -0.775000 0.193750
v 0.001096 -0.812500 0.406250
v 0.001096 -0.812500 0.203125
v -0.399342 -0.887500 0.221875
v 0.001096 -0.812500 -0.203125
v -0.399342 -0.887500 -0.221875
v -0.141826 -1.155920 -0.212500
v 0.058393 -1.118420 0.000000
v -0.141826 -1.155920 0.212500
v -0.342045 -1.193420 0.000000
v 0.058393 -1.118420 0.203125
v -0.342045 -1.193420 0.221875
v 0.058393 -1.118420 -0.203125
v -0.342045 -1.193420 -0.221875
v -0.114556 -1.359984 -0.409383
v -0.102279 -1.367067 0.000000
v 0.290174 -1.361439 -0.011672
v -0.090002 -1.374150 0.409383
v -0.494732 -1.372694 0.011672
v 0.301909 -1.368210 0.379650
v -0.481913 -1.380090 0.439116
v 0.278438 -1.354669 -0.402994
v -0.507551 -1.365298 -0.415772
v 0.584463 0.685351 -0.703238
v 0.584463 0.703238 -0.685351
v 0.601754 0.682408 -0.682408
v 0.584463 0.694229 -0.700795
v 0.593097 0.683828 -0.699325
v 0.592732 0.692395 -0.697018
v 0.593097 0.699325 -0.683828
v 0.584463 0.700795 -0.694229
v 0.592732 0.697018 -0.692395
v 0.599444 0.682747 -0.691679
v 0.599444 0.691679 -0.682747
v 0.597200 0.691635 -0.691635
v 0.584463 -0.685351 -0.703238
v 0.601754 -0.682408 -0.682408
v 0.584463 -0.703238 -0.685351
v 0.593097 -0.683828 -0.699325
v 0.584463 -0.694229 -0.700795
v 0.592732 -0.692395 -0.697018
v 0.599444 -0.691679 -0.682747
v 0.599444 -0.682747 -0.691679
v 0.597200 -0.691635 -0.691635
v 0.584463 -0.700795 -0.694229
v 0.593097 -0.699325 -0.683828
v 0.592732 -0.697018 -0.692395
v 0.601754 0.682408 0.682408
v 0.584463 0.703238 0.685351
v 0.584463 0.685351 0.703238
v 0.599444 0.691679 0.682747
v 0.599444 0.682747 0.691679
v 0.597200 0.691635 0.691635
v 0.584463 0.700795 0.694229
v 0.593097 0.699325 0.683828
v 0.592732 0.697018 0.692395
v 0.593097 0.683828 0.699325
v 0.584463 0.694229 0.700795
v 0.592732 0.692395 0.697018
v 0.601754 -0.682408 0.682408
v 0.584463 -0.685351 0.703238
v 0.584463 -0.703238 0.685351
v 0.599444 -0.682747 0.691679
v 0.599444 -0.691679 0.682747
v 0.597200 -0.691635 0.691635
v 0.584463 -0.694229 0.700795
v 0.593097 -0.683828 0.699325
v 0.592732 -0.692395 0.697018
v 0.593097 -0.699325 0.683828
v 0.584463 -0.700795 0.694229
v 0.592732 -0.697018 0.692395
v -0.982709 0.978874 -0.996762
v -1.000000 0.982408 -0.982408
v -0.982709 0.996762 -0.978874
v -0.991343 0.980585 -0.996082
v -0.982709 0.987752 -0.994318
v -0.990978 0.989016 -0.993638
v -0.997690 0.990814 -0.981882
v -0.997690 0.981882 -0.990814
v -0.995446 0.989929 -0.989929
v -0.982709 0.994318 -0.987752
v -0.991343 0.996082 -0.980585
v -0.990978 0.993638 -0.989016
v -0.982709 -0.996762 -0.978874
v -1.000000 -0.982408 -0.982408
v -0.982709 -0.978874 -0.996762
v -0.991343 -0.996082 -0.980585
v -0.982709 -0.994318 -0.987752
v -0.990978 -0.993638 -0.989016
v -0.997690 -0.981882 -0.990814
v -0.997690 -0.990814 -0.981882
v -0.995446 -0.989929 -0.989929
v -0.982709 -0.987752 -0.994318
v -0.991343 -0.980585 -0.996082
v -0.990978 -0.989016 -0.993638
v -1.000000 0.982408 0.982408
v -0.982709 0.978874 0.996762
v -0.982709 0.996762 0.978874
v -0.997690 0.981882 0.990814
v -0.997690 0.990814 0.981882
v -0.995446 0.989929 0.989929
v -0.982709 0.987752 0.994318
v -0.991343 0.980585 0.996082
v -0.990978 0.989016 0.993638
v -0.991343 0.996082 0.980585
v -0.982709 0.994318 0.987752
v -0.990978 0.993638 0.989016
v -0.982709 -0.996762 0.978874
v -0.982709 -0.978874 0.996762
v -1.000000 -0.982408 0.982408
v -0.982709 -0.994318 0.987752
v -0.991343 -0.996082 0.980585
v -0.990978 -0.993638 0.989016
v -0.991343 -0.980585 0.996082
v -0.982709 -0.987752 0.994318
v -0.990978 -0.989016 0.993638
v -0.997690 -0.990814 0.981882
v -0.997690 -0.981882 0.990814
v -0.995446 -0.989929 0.989929
v -1.000000 -0.982408 0.000000
v -0.982709 -0.996762 0.000000
v -0.997683 -0.990770 0.000000
v -0.991355 -0.996024 0.000000
v -0.199123 -0.850000 -0.832113
v -0.202254 -0.832699 -0.850586
v -0.199542 -0.847682 -0.841135
v -0.200688 -0.841350 -0.847897
v -0.202254 -0.832699 0.850586
v -0.199123 -0.850000 0.832113
v -0.200688 -0.841350 0.847897
v -0.199542 -0.847682 0.841135
v 0.584463 -0.703238 0.000000
v 0.601754 -0.682408 0.000000
v 0.593109 -0.699262 0.000000
v 0.599437 -0.691638 0.000000
v -1.000000 -0.982408 0.500000
v -0.982709 -0.996762 0.498381
v -0.997683 -0.990770 0.499783
v -0.991355 -0.996024 0.499190
v -0.602692 -0.907699 -0.925586
v -0.599561 -0.925000 -0.907113
v -0.601127 -0.916349 -0.922897
v -0.599981 -0.922682 -0.916135
v 0.198185 -0.757699 0.775586
v 0.201315 -0.775000 0.757113
v 0.199750 -0.766350 0.772897
v 0.200896 -0.772682 0.766135
v 0.601754 -0.682408 -0.350000
v 0.584463 -0.703238 -0.351619
v 0.599437 -0.691638 -0.350217
v 0.593109 -0.699262 -0.350810
v -1.000000 -0.982408 -0.500000
v -0.982709 -0.996762 -0.498381
v -0.997683 -0.990770 -0.499783
v -0.991355 -0.996024 -0.499190
v 0.198185 -0.757699 -0.775586
v 0.201316 -0.775000 -0.757113
v 0.199750 -0.766350 -0.772897
v 0.200896 -0.772682 -0.766135
v -0.602692 -0.907699 0.925586
v -0.599562 -0.925000 0.907113
v -0.601127 -0.916349 0.922897
v -0.599981 -0.922682 0.916135
v 0.601754 -0.682408 0.350000
v 0.584463 -0.703238 0.351619
v 0.599437 -0.691638 0.350217
v 0.593109 -0.699262 0.350810
v -1.066640 -0.937633 0.904051
v -1.066640 -0.937633 0.460120
v -1.066640 0.870469 0.904051
v -1.066640 -0.937633 -0.904051
v -1.066640 0.870469 -0.904051
v -1.066640 -0.937633 -0.000000
v -1.066640 -0.937633 -0.460120
vn 0.1841 -0.9829 -0.0000
vn -0.5577 -0.8300 -0.0000
vn 0.1841 0.9829 -0.0000
vn 1.0000 -0.0000 -0.0000
vn -0.9829 -0.1841 -0.0000
vn 0.1841 -0.0000 0.9829
vn 0.0452 0.0085 0.9989
vn 0.0452 0.0085 -0.9989
vn -0.0277 0.6605 -0.7503
vn -0.0342 0.7262 -0.6866
vn 0.7208 0.6931 -0.0063
vn -0.7740 0.6328 0.0225
vn 0.9829 0.1841 -0.0000
vn 0.0138 -0.9997 -0.0177
vn -0.0064 0.7157 0.6984
vn 0.0056 0.6258 0.7800
vn -0.7466 0.6649 0.0223
vn 0.7262 0.6875 -0.0065
vn 0.4414 0.2444 -0.8634
vn 0.4326 0.6375 -0.6375
vn 0.4414 0.8634 -0.2444
vn 0.7679 0.6096 -0.1969
vn 0.9442 0.2330 -0.2330
vn 0.7679 0.1969 -0.6096
vn 0.6971 0.5070 -0.5070
vn 0.4414 -0.2444 -0.8634
vn 0.7679 -0.1969 -0.6096
vn 0.9442 -0.2330 -0.2330
vn 0.7679 -0.6096 -0.1969
vn 0.4414 -0.8634 -0.2444
vn 0.4326 -0.6375 -0.6375
vn 0.6971 -0.5070 -0.5070
vn 0.9442 0.2330 0.2330
vn 0.7679 0.6096 0.1969
vn 0.4414 0.8634 0.2444
vn 0.4326 0.6375 0.6375
vn 0.4414 0.2444 0.8634
vn 0.7679 0.1969 0.6096
vn 0.6971 0.5070 0.5070
vn 0.9442 -0.2330 0.2330
vn 0.7679 -0.1969 0.6096
vn 0.4414 -0.2444 0.8634
vn 0.4326 -0.6375 0.6375
vn 0.4414 -0.8634 0.2444
vn 0.7679 -0.6096 0.1969
vn 0.6971 -0.5070 0.5070
vn -0.0294 0.2722 -0.9618
vn -0.5881 0.2486 -0.7696
vn -0.9193 0.2783 -0.2783
vn -0.5881 0.7697 -0.2486
vn -0.0294 0.9618 -0.2722
vn 0.0499 0.7062 -0.7062
vn -0.4046 0.6466 -0.6467
vn -0.0294 -0.9618 -0.2722
vn -0.5881 -0.7696 -0.2486
vn -0.9193 -0.2783 -0.2783
vn -0.5881 -0.2486 -0.7696
vn -0.0294 -0.2722 -0.9618
vn 0.0499 -0.7062 -0.7062
vn -0.4046 -0.6466 -0.6467
vn -0.9193 0.2783 0.2783
vn -0.5881 0.2486 0.7696
vn -0.0294 0.2722 0.9618
vn 0.0499 0.7062 0.7062
vn -0.0294 0.9618 0.2722
vn -0.5881 0.7696 0.2486
vn -0.4046 0.6466 0.6467
vn -0.0294 -0.9618 0.2722
vn 0.0499 -0.7062 0.7062
vn -0.0294 -0.2722 0.9618
vn -0.5881 -0.2486 0.7696
vn -0.9193 -0.2783 0.2783
vn -0.5881 -0.7697 0.2486
vn -0.4046 -0.6466 0.6467
vn -0.0817 -0.9967 -0.0001
vn -0.6387 -0.7694 -0.0001
vn -0.9640 -0.2660 -0.0000
vn 0.2239 -0.9405 -0.2555
vn 0.2559 -0.6836 -0.6836
vn 0.2239 -0.2554 -0.9405
vn 0.9703 -0.0000 -0.2418
vn 0.7694 -0.0000 -0.6387
vn 0.4128 -0.0000 -0.9108
vn -0.0784 -0.0000 0.9969
vn -0.6387 -0.0000 0.7694
vn -0.9643 -0.0000 0.2650
vn 0.4128 -0.0000 0.9108
vn 0.7694 -0.0000 0.6387
vn 0.9703 -0.0000 0.2418
vn -0.0784 -0.0000 -0.9969
vn -0.6387 -0.0000 -0.7694
vn -0.9643 -0.0000 -0.2650
vn 0.2244 0.9395 0.2586
vn 0.2560 0.6835 0.6835
vn 0.2244 0.2586 0.9395
vn 0.4128 0.9108 -0.0000
vn 0.7694 0.6387 -0.0000
vn 0.9703 0.2418 -0.0000
vn 0.2241 -0.9405 0.2554
vn 0.2562 -0.6835 0.6835
vn 0.2241 -0.2554 0.9405
vn -0.0784 0.9969 -0.0000
vn -0.6387 0.7694 -0.0000
vn -0.9643 0.2650 -0.0000
vn 0.2244 0.9396 -0.2586
vn 0.2560 0.6835 -0.6835
vn 0.2244 0.2586 -0.9396
vn 0.4153 -0.9097 0.0001
vn 0.7694 -0.6387 0.0001
vn 0.9701 -0.2426 -0.0000
vn -0.0850 -0.9964 -0.0000
vn -0.6387 -0.7694 -0.0000
vn -0.9637 -0.2670 -0.0000
vn 0.2236 -0.9415 -0.2523
vn 0.2560 -0.6835 -0.6835
vn 0.2236 -0.2523 -0.9415
vn 0.2236 -0.9415 0.2523
vn 0.2560 -0.6835 0.6835
vn 0.2236 -0.2523 0.9415
vn 0.4178 -0.9085 -0.0000
vn 0.7694 -0.6387 -0.0000
vn 0.9699 -0.2434 -0.0000
vn -0.0817 -0.9967 0.0001
vn -0.6387 -0.7694 0.0001
vn 0.2241 -0.9405 -0.2554
vn 0.2562 -0.6835 -0.6835
vn 0.2241 -0.2554 -0.9405
vn 0.2239 -0.9405 0.2555
vn 0.2559 -0.6836 0.6836
vn 0.2239 -0.2555 0.9405
vn 0.4153 -0.9097 -0.0001
vn 0.7694 -0.6387 -0.0001
vn 0.1841 -0.0000 -0.9829
vn -1.0000 -0.0000 -0.0000
vn -0.7618 -0.0000 -0.6479
vn -0.7618 -0.0000 0.6479
vn -0.8593 0.5115 -0.0000
vt 0.312500 0.502885
vt 0.372301 0.503123
vt 0.372301 0.562500
vt 0.312500 0.562500
vt 0.312500 0.687500
vt 0.372301 0.687500
vt 0.372301 0.746877
vt 0.312500 0.747115
vt 0.127699 0.502263
vt 0.187500 0.502417
vt 0.187500 0.562500
vt 0.127699 0.562500
vt 0.377199 0.247801
vt 0.377199 0.187500
vt 0.627699 0.502960
vt 0.872301 0.502353
vt 0.872301 0.747647
vt 0.627699 0.747040
vt 0.378141 0.503141
vt 0.621859 0.503141
vt 0.621859 0.746859
vt 0.378141 0.746859
vt 0.378141 0.687500
vt 0.378141 0.625000
vt 0.378141 0.562500
vt 0.250000 0.687500
vt 0.281250 0.687500
vt 0.250000 0.747370
vt 0.218750 0.656250
vt 0.218750 0.625000
vt 0.281250 0.593750
vt 0.312500 0.593750
vt 0.312500 0.625000
vt 0.281250 0.625000
vt 0.250000 0.502630
vt 0.250000 0.562500
vt 0.218750 0.562500
vt 0.377960 0.752699
vt 0.622040 0.752699
vt 0.622647 0.997301
vt 0.377353 0.997301
vt 0.377505 0.937989
vt 0.377600 0.875489
vt 0.377712 0.812989
vt 0.127699 0.625000
vt 0.187500 0.625000
vt 0.187500 0.656250
vt 0.187500 0.687500
vt 0.127699 0.687500
vt 0.127699 0.687500
vt 0.187500 0.747583
vt 0.127699 0.747737
vt 0.218750 0.687500
vt 0.187500 0.747583
vt 0.187500 0.593750
vt 0.281250 0.562500
vt 0.250000 0.656250
vt 0.372301 0.625000
vt 0.372301 0.687500
vt 0.312500 0.656250
vt 0.281250 0.656250
vt 0.218750 0.593750
vt 0.250000 0.593750
vt 0.250000 0.625000
vt 0.622040 0.497301
vt 0.623556 0.497370
vt 0.623482 0.498724
vt 0.621982 0.498714
vt 0.625000 0.497614
vt 0.625000 0.498973
vt 0.626286 0.503018
vt 0.626027 0.500000
vt 0.627386 0.500000
vt 0.623514 0.503081
vt 0.623506 0.501494
vt 0.621919 0.501486
vt 0.623464 0.499550
vt 0.377960 0.497301
vt 0.378018 0.498714
vt 0.376518 0.498724
vt 0.376444 0.497370
vt 0.378081 0.501486
vt 0.376494 0.501494
vt 0.376486 0.503081
vt 0.373714 0.503120
vt 0.373973 0.500000
vt 0.372614 0.500000
vt 0.375000 0.497614
vt 0.375000 0.498973
vt 0.376536 0.499550
vt 0.623514 0.746919
vt 0.623506 0.748506
vt 0.621919 0.748514
vt 0.626286 0.746982
vt 0.626027 0.750000
vt 0.627386 0.750000
vt 0.625000 0.752386
vt 0.623555 0.752630
vt 0.623482 0.751276
vt 0.625000 0.751027
vt 0.621982 0.751286
vt 0.623464 0.750450
vt 0.378081 0.748514
vt 0.376494 0.748506
vt 0.376486 0.746919
vt 0.378018 0.751286
vt 0.376518 0.751276
vt 0.376444 0.752630
vt 0.375000 0.752386
vt 0.375000 0.751027
vt 0.373714 0.746880
vt 0.373973 0.750000
vt 0.372614 0.750000
vt 0.376536 0.750450
vt 0.622647 0.252699
vt 0.622706 0.251416
vt 0.623795 0.251540
vt 0.623807 0.252768
vt 0.622735 0.248852
vt 0.623741 0.248741
vt 0.622801 0.247801
vt 0.623852 0.247735
vt 0.625000 0.247573
vt 0.624732 0.249732
vt 0.871988 0.500000
vt 0.873210 0.500000
vt 0.875000 0.502427
vt 0.625000 0.253012
vt 0.625000 0.251790
vt 0.623839 0.250971
vt 0.125000 0.502427
vt 0.126790 0.500000
vt 0.128012 0.500000
vt 0.375000 0.247573
vt 0.376148 0.247735
vt 0.376259 0.248741
vt 0.375268 0.249732
vt 0.377265 0.248852
vt 0.377294 0.251416
vt 0.376205 0.251540
vt 0.377353 0.252699
vt 0.376193 0.252768
vt 0.375000 0.253012
vt 0.375000 0.251790
vt 0.376161 0.250971
vt 0.622801 0.002199
vt 0.622735 0.001148
vt 0.623741 0.001259
vt 0.623852 0.002265
vt 0.622573 0.000000
vt 0.623627 0.000795
vt 0.623807 0.997232
vt 0.623795 0.998460
vt 0.622573 1.000000
vt 0.625000 0.996988
vt 0.625000 0.998210
vt 0.875000 0.747573
vt 0.873210 0.750000
vt 0.871988 0.750000
vt 0.625000 0.002427
vt 0.624732 0.000268
vt 0.623839 0.999029
vt 0.128012 0.750000
vt 0.126790 0.750000
vt 0.125000 0.747573
vt 0.375000 0.996988
vt 0.376193 0.997232
vt 0.376205 0.998460
vt 0.375000 0.998210
vt 0.377427 1.000000
vt 0.377427 0.000000
vt 0.377265 0.001148
vt 0.376259 0.001259
vt 0.376373 0.000795
vt 0.377199 0.002199
vt 0.376148 0.002265
vt 0.375000 0.002427
vt 0.375268 0.000268
vt 0.376161 0.999029
vt 0.125000 0.687500
vt 0.375000 0.062500
vt 0.376154 0.062527
vt 0.377199 0.062500
vt 0.187500 0.500000
vt 0.375000 0.312500
vt 0.376242 0.312323
vt 0.377505 0.312011
vt 0.312744 0.750000
vt 0.375000 0.812256
vt 0.376342 0.812677
vt 0.373717 0.562493
vt 0.376493 0.562461
vt 0.125000 0.625000
vt 0.125000 0.562601
vt 0.375000 0.187399
vt 0.375000 0.125000
vt 0.376154 0.125000
vt 0.376154 0.187473
vt 0.377199 0.125000
vt 0.250244 0.500000
vt 0.312500 0.500000
vt 0.375000 0.437500
vt 0.375000 0.375244
vt 0.376288 0.374823
vt 0.376342 0.437323
vt 0.377600 0.374511
vt 0.377712 0.437011
vt 0.250000 0.750000
vt 0.187744 0.750000
vt 0.375000 0.937256
vt 0.375000 0.875000
vt 0.376288 0.875177
vt 0.376242 0.937677
vt 0.373717 0.625000
vt 0.373717 0.687507
vt 0.376493 0.625000
vt 0.376493 0.687539
vt 0.125000 0.687399
vt 0.375000 0.062601
vt 0.187744 0.500000
vt 0.250000 0.500000
vt 0.375000 0.375000
vt 0.375000 0.312744
vt 0.312500 0.750000
vt 0.250244 0.750000
vt 0.375000 0.874756
vt 0.375000 0.812500
vt 0.125000 0.562500
vt 0.375000 0.187500
vt 0.312744 0.500000
vt 0.375000 0.437744
vt 0.187500 0.750000
vt 0.375000 0.937500
s 0
usemtl Material.001
f 175/1/1 56/2/1 167/3/1 5/4/1
f 8/5/1 183/6/1 80/7/1 163/8/1
f 102/9/1 159/10/1 6/11/1 171/12/1
f 103/13/2 170/14/2 192/14/2 189/13/2
f 43/15/3 92/16/3 116/17/3 67/18/3
f 55/19/4 44/20/4 66/21/4 78/22/4 182/23/4 151/24/4 166/25/4
f 1/26/1 20/27/1 8/5/1 163/8/1 147/28/1
f 22/29/5 12/30/5 28/30/5 30/29/5
f 23/31/1 13/32/1 4/33/1 10/34/1
f 159/10/1 142/35/1 2/36/1 16/37/1 6/11/1
f 79/38/6 68/39/6 115/40/6 127/41/6 178/42/6 146/43/6 162/44/6
f 139/45/1 3/46/1 17/47/1 7/48/1 155/49/1
f 155/50/1 7/48/1 179/51/1 126/52/1
f 7/48/1 18/53/1 1/26/1 147/28/1 179/54/1
f 171/12/1 6/11/1 15/55/1 3/46/1 139/45/1
f 142/35/1 175/1/1 5/4/1 14/56/1 2/36/1
f 22/29/1 11/57/1 1/26/1 18/53/1
f 4/33/1 150/58/1 183/59/1 8/5/1 19/60/1
f 21/61/1 19/60/1 8/5/1 20/27/1
f 5/4/1 167/3/1 150/58/1 4/33/1 13/32/1
f 11/57/1 21/61/1 20/27/1 1/26/1
f 11/57/7 22/29/7 30/29/7 27/57/7
f 10/34/1 4/33/1 19/60/1 21/61/1
f 17/47/1 22/29/1 18/53/1 7/48/1
f 3/46/1 12/30/1 22/29/1 17/47/1
f 21/61/7 11/57/7 27/57/7 29/61/7
f 24/62/8 9/63/8 25/63/8 32/62/8
f 2/36/1 14/56/1 23/31/1 9/63/1
f 14/56/1 5/4/1 13/32/1 23/31/1
f 15/55/1 24/62/1 12/30/1 3/46/1
f 6/11/1 16/37/1 24/62/1 15/55/1
f 16/37/1 2/36/1 9/63/1 24/62/1
f 25/63/9 31/31/9 40/31/9 33/63/9
f 32/62/10 25/63/10 33/63/10 41/62/10
f 26/34/11 29/61/11 38/61/11 35/34/11
f 30/29/12 28/30/12 37/30/12 39/29/12
f 12/30/5 24/62/5 32/62/5 28/30/5
f 10/34/13 21/61/13 29/61/13 26/34/13
f 9/63/8 23/31/8 31/31/8 25/63/8
f 23/31/13 10/34/13 26/34/13 31/31/13
f 41/62/14 33/63/14 34/64/14 37/30/14
f 34/64/14 35/34/14 38/61/14 36/57/14
f 37/30/14 34/64/14 36/57/14 39/29/14
f 33/63/14 40/31/14 35/34/14 34/64/14
f 27/57/15 30/29/15 39/29/15 36/57/15
f 29/61/16 27/57/16 36/57/16 38/61/16
f 28/30/17 32/62/17 41/62/17 37/30/17
f 31/31/18 26/34/18 35/34/18 40/31/18
f 42/65/19 45/66/19 47/67/19 46/68/19
f 45/66/20 49/69/20 50/70/20 47/67/20
f 43/15/21 48/71/21 50/72/21 49/73/21
f 48/71/22 52/74/22 53/75/22 50/72/22
f 44/20/23 51/76/23 53/75/23 52/74/23
f 51/76/24 46/68/24 47/67/24 53/75/24
f 47/67/25 50/70/25 53/77/25
f 54/78/26 57/79/26 59/80/26 58/81/26
f 57/79/27 61/82/27 62/83/27 59/80/27
f 55/19/28 60/84/28 62/83/28 61/82/28
f 60/84/29 64/85/29 65/86/29 62/83/29
f 56/2/30 63/87/30 65/86/30 64/85/30
f 63/88/31 58/81/31 59/80/31 65/89/31
f 59/80/32 62/90/32 65/89/32
f 66/21/33 69/91/33 71/92/33 70/93/33
f 69/91/34 73/94/34 74/95/34 71/92/34
f 67/18/35 72/96/35 74/95/35 73/94/35
f 72/97/36 76/98/36 77/99/36 74/100/36
f 68/39/37 75/101/37 77/99/37 76/98/37
f 75/101/38 70/93/38 71/92/38 77/99/38
f 71/102/39 74/100/39 77/99/39
f 78/22/40 81/103/40 83/104/40 82/105/40
f 81/103/41 85/106/41 86/107/41 83/104/41
f 79/38/42 84/108/42 86/107/42 85/106/42
f 84/108/43 88/109/43 89/110/43 86/107/43
f 80/7/44 87/111/44 89/112/44 88/113/44
f 87/111/45 82/105/45 83/104/45 89/112/45
f 83/114/46 86/107/46 89/110/46
f 90/115/47 93/116/47 95/117/47 94/118/47
f 93/116/48 97/119/48 98/120/48 95/117/48
f 91/121/49 96/122/49 98/120/49 97/119/49
f 96/122/50 100/123/50 101/124/50 98/120/50
f 92/16/51 99/125/51 101/126/51 100/127/51
f 99/128/52 94/118/52 95/117/52 101/129/52
f 95/117/53 98/130/53 101/129/53
f 102/9/54 105/131/54 107/132/54 106/133/54
f 105/134/55 109/135/55 110/136/55 107/137/55
f 103/13/56 108/138/56 110/136/56 109/135/56
f 108/138/57 112/139/57 113/140/57 110/136/57
f 104/141/58 111/142/58 113/140/58 112/139/58
f 111/142/59 106/143/59 107/144/59 113/140/59
f 107/144/60 110/145/60 113/140/60
f 114/146/61 117/147/61 119/148/61 118/149/61
f 117/147/62 121/150/62 122/151/62 119/148/62
f 115/40/63 120/152/63 122/153/63 121/154/63
f 120/152/64 124/155/64 125/156/64 122/153/64
f 116/17/65 123/157/65 125/158/65 124/159/65
f 123/160/66 118/149/66 119/148/66 125/161/66
f 119/162/67 122/153/67 125/156/67
f 126/52/68 129/163/68 131/164/68 130/165/68
f 129/166/69 133/167/69 134/168/69 131/169/69
f 127/41/70 132/170/70 134/168/70 133/167/70
f 132/171/71 136/172/71 137/173/71 134/174/71
f 128/175/72 135/176/72 137/173/72 136/172/72
f 135/176/73 130/177/73 131/178/73 137/173/73
f 131/169/74 134/168/74 137/179/74
f 155/50/75 126/52/75 130/165/75 157/180/75
f 157/181/76 130/177/76 135/176/76 156/182/76
f 156/182/77 135/176/77 128/175/77 154/183/77
f 159/10/78 102/9/78 106/133/78 161/184/78
f 161/185/79 106/143/79 111/142/79 160/186/79
f 160/186/80 111/142/80 104/141/80 158/187/80
f 44/20/81 55/19/81 61/82/81 51/76/81
f 51/76/82 61/82/82 57/79/82 46/68/82
f 46/68/83 57/79/83 54/78/83 42/65/83
f 127/41/84 115/40/84 121/154/84 132/170/84
f 132/171/85 121/150/85 117/147/85 136/172/85
f 136/172/86 117/147/86 114/146/86 128/175/86
f 68/39/87 79/38/87 85/106/87 75/101/87
f 75/101/88 85/106/88 81/103/88 70/93/88
f 70/93/89 81/103/89 78/22/89 66/21/89
f 90/115/90 104/141/90 112/139/90 93/116/90
f 93/116/91 112/139/91 108/138/91 97/119/91
f 97/119/92 108/138/92 103/13/92 91/121/92
f 67/18/93 116/17/93 124/159/93 72/96/93
f 72/97/94 124/155/94 120/152/94 76/98/94
f 76/98/95 120/152/95 115/40/95 68/39/95
f 43/15/96 67/18/96 73/94/96 48/71/96
f 48/71/97 73/94/97 69/91/97 52/74/97
f 52/74/98 69/91/98 66/21/98 44/20/98
f 163/8/99 80/7/99 88/113/99 165/188/99
f 165/189/100 88/109/100 84/108/100 164/190/100
f 164/190/101 84/108/101 79/38/101 162/44/101
f 116/17/102 92/16/102 100/127/102 123/157/102
f 123/160/103 100/123/103 96/122/103 118/149/103
f 118/149/104 96/122/104 91/121/104 114/146/104
f 92/16/105 43/15/105 49/73/105 99/125/105
f 99/128/106 49/69/106 45/66/106 94/118/106
f 94/118/107 45/66/107 42/65/107 90/115/107
f 167/3/108 56/2/108 64/85/108 169/191/108
f 169/191/109 64/85/109 60/84/109 168/192/109
f 168/192/110 60/84/110 55/19/110 166/25/110
f 171/12/111 139/45/111 141/193/111 173/194/111
f 173/195/112 141/196/112 140/197/112 172/198/112
f 172/198/113 140/197/113 138/199/113 170/14/113
f 175/1/114 142/35/114 144/200/114 177/201/114
f 177/202/115 144/203/115 145/204/115 176/205/115
f 176/205/116 145/204/116 143/206/116 174/207/116
f 179/54/117 147/28/117 149/208/117 181/209/117
f 181/210/118 149/211/118 148/212/118 180/213/118
f 180/213/119 148/212/119 146/43/119 178/42/119
f 183/59/120 150/58/120 152/214/120 185/215/120
f 185/215/121 152/214/121 153/216/121 184/217/121
f 184/217/122 153/216/122 151/24/122 182/23/122
f 139/45/111 155/49/111 157/218/111 141/193/111
f 141/196/112 157/219/112 156/182/112 140/197/112
f 140/197/113 156/182/113 154/183/113 138/199/113
f 142/35/114 159/10/114 161/220/114 144/221/114
f 144/222/115 161/223/115 160/186/115 145/204/115
f 145/204/116 160/186/116 158/187/116 143/206/116
f 147/28/117 163/8/117 165/224/117 149/225/117
f 149/226/118 165/227/118 164/190/118 148/212/118
f 148/212/119 164/190/119 162/44/119 146/43/119
f 150/58/120 167/3/120 169/191/120 152/214/120
f 152/214/121 169/191/121 168/192/121 153/216/121
f 153/216/122 168/192/122 166/25/122 151/24/122
f 102/9/123 171/12/123 173/228/123 105/131/123
f 105/134/124 173/229/124 172/198/124 109/135/124
f 109/135/77 172/198/77 170/14/77 103/13/77
f 56/2/125 175/1/125 177/230/125 63/87/125
f 63/88/126 177/231/126 176/205/126 58/81/126
f 58/81/127 176/205/127 174/207/127 54/78/127
f 126/52/128 179/51/128 181/232/128 129/163/128
f 129/166/129 181/233/129 180/213/129 133/167/129
f 133/167/130 180/213/130 178/42/130 127/41/130
f 80/7/131 183/6/131 185/215/131 87/111/131
f 87/111/132 185/215/132 184/217/132 82/105/132
f 82/105/110 184/217/110 182/23/110 78/22/110
f 104/141/133 90/115/133 42/65/133 54/78/133 174/207/133 143/206/133 158/187/133
f 91/121/135 103/13/135 189/13/135 190/121/135
f 170/14/2 138/199/2 191/199/2 192/14/2
f 128/175/136 114/146/136 188/146/136 186/175/136
f 154/183/2 128/175/2 186/175/2 187/183/2
f 138/199/2 154/183/2 187/183/2 191/199/2
f 114/146/137 91/121/137 190/121/137 188/146/137
usemtl Material.002
f 186/175/134 188/146/134 190/121/134 189/13/134 192/14/134 191/199/134 187/183/134
