# Blender 4.0.1
# www.blender.org
mtllib sharpswan.mtl
o Cube
v 0.720197 0.473894 -0.266667
v 1.016014 0.218919 0.088889
v 0.279624 0.734679 0.078378
v 1.016014 0.218919 0.088889
v 0.270000 0.861936 0.000000
v -0.730000 0.000000 -1.000000
v 0.270000 0.861936 0.000000
v -0.730000 0.000000 1.000000
v 1.016014 0.218919 0.088889
v -0.446174 0.262174 -0.069340
v -0.230000 0.430968 0.500000
v -0.230000 0.430968 0.500000
v -0.330729 0.348504 0.409068
v -0.289512 0.378825 -0.361887
v -0.649012 0.069806 0.000000
v 0.020000 0.646452 0.250000
v -0.230000 0.430968 0.500000
v -0.247214 0.416131 0.469883
v -0.230000 0.430968 0.500000
v -0.247214 0.416131 -0.469883
v -0.709696 0.017501 0.000000
v 0.145000 0.754194 0.125000
v -0.230000 0.430968 0.500000
v 0.020000 0.646452 0.250000
v -0.480000 0.215484 0.750000
v -0.054343 0.559873 0.141817
v -0.513177 0.186887 0.513449
v -0.500680 0.199113 -0.524670
v -0.103592 0.539923 -0.108437
v -0.617480 0.096985 0.436309
v -0.617480 0.096985 -0.436309
v 0.020000 0.646452 0.250000
v 0.020000 0.646452 0.250000
v -0.480000 0.215484 0.750000
v 0.020000 0.646452 0.250000
v 0.187550 0.407921 0.331063
v 0.414873 0.490553 0.177299
v 0.193176 0.589299 0.210833
v -0.166998 0.378370 0.506400
v 0.124447 0.160496 0.519485
v 0.443828 0.769445 0.534043
v 0.441986 0.762910 0.539097
v 0.446533 0.764563 0.536021
v -0.741153 0.999557 0.162537
v -0.741153 0.999557 0.162537
v -0.741153 0.999557 0.162537
v -0.523793 0.571025 0.165982
v -0.429973 0.385990 0.167369
v -0.538860 0.657046 0.251237
v -0.632473 0.785291 0.164259
v -0.579352 0.624622 0.080181
v -0.984617 0.373651 0.314631
v -0.969093 0.311881 0.267566
v -0.946004 0.329147 0.363248
v -1.028089 0.459358 0.313942
v -1.028089 0.459358 0.313942
v -0.965853 0.336644 0.314908
v -0.987630 0.390855 0.331682
v -0.995729 0.384371 0.297470
v -1.269725 0.238584 0.408261
v -1.269725 0.238584 0.408261
v -1.269725 0.238584 0.408261
v -1.269725 0.238584 0.408261
v -1.269725 0.238584 0.408261
v -1.269725 0.238584 0.408261
v -1.269725 0.238584 0.408261
v -1.269725 0.238584 0.408261
v 0.668801 0.599697 -0.957254
v 0.494199 0.577805 -1.066143
v 0.639219 0.625194 -0.992810
v 0.594199 0.663998 -0.966143
v 0.093684 0.824480 -0.603808
v -0.206316 0.565899 -0.903808
v 0.156210 0.751315 -0.884719
v 0.141210 0.738386 -0.899719
v 0.067009 0.722893 -0.842924
v 0.005241 0.996339 -0.972560
v 0.001234 0.992885 -0.976568
v -0.018591 0.988746 -0.961393
vn 0.7004 0.4120 0.5829
vn 0.3465 0.5108 0.7868
vn 0.6667 0.6667 -0.3333
vn 0.1244 -0.9922 -0.0000
vn -0.6529 0.7575 -0.0000
vn -0.7373 0.6526 0.1748
vn -0.0000 1.0000 -0.0000
vn 0.5691 0.8148 0.1108
vn 1.0000 -0.0000 -0.0000
vn 0.8018 0.5345 0.2673
vn -0.6439 0.7536 0.1324
vn -0.6103 0.7916 0.0321
vn -0.6112 0.7907 -0.0363
vn -0.6335 0.7676 -0.0972
vn -0.7429 0.6686 -0.0333
vn -0.7209 0.6926 0.0247
vn -0.0000 -0.7071 0.7071
vn -0.4851 0.4851 -0.7276
vn -0.8018 -0.5345 -0.2673
vn -0.6667 0.6667 -0.3333
vn -0.6398 0.7681 0.0245
vn -0.6388 0.7691 0.0220
vn 0.2662 -0.0000 0.9639
vn -1.0000 -0.0000 -0.0000
vn -0.6555 0.7552 0.0041
vn -0.6552 0.7555 0.0044
vn 0.8729 0.4364 -0.2182
vn 0.7512 0.6601 -0.0000
vn -0.0000 -0.0000 -1.0000
vn -0.7071 -0.0000 -0.7071
vn -0.4472 -0.8944 -0.0000
vn -0.5774 0.5774 -0.5774
vn 0.3554 0.5185 0.7777
vn -0.7139 0.6680 -0.2100
vn -0.6665 0.7455 -0.0107
vn -0.6558 0.7546 0.0221
vn -0.6337 0.7729 -0.0312
vn -0.6435 0.7654 -0.0101
vn -0.6523 0.7579 -0.0032
vn -0.6315 0.7748 -0.0292
vn -0.6873 0.7263 0.0044
vn -0.6890 0.7248 -0.0046
vn 0.6379 -0.0000 0.7701
vn 0.5774 -0.5774 0.5774
vn 0.4472 0.8944 -0.0000
vn 0.7071 -0.0000 0.7071
vn 0.5643 -0.6794 0.4691
vn -0.3465 -0.5108 -0.7868
vn 0.8740 0.3459 -0.3413
vn -0.8505 0.4501 0.2721
vn 0.2084 0.3683 -0.9060
vn -0.8559 -0.4318 0.2845
vn 0.3912 -0.8262 0.4054
vn -0.2513 -0.1352 -0.9584
vn -0.4609 -0.0039 -0.8875
vn 0.2024 -0.8734 0.4430
vn 0.0183 0.2608 0.9652
vn 0.6306 -0.7761 -0.0000
vn -0.6306 0.7761 -0.0000
vn 0.2513 0.1352 0.9584
vn -0.5250 0.1525 -0.8373
vn 0.0947 0.3016 0.9487
vn -0.3901 0.0338 -0.9202
vn 0.2509 0.1350 0.9586
vn 0.2303 -0.9429 -0.2408
vn -0.0030 0.4538 0.8911
vn -0.0806 0.4103 0.9084
vn 0.0437 -0.9844 -0.1706
vn -0.2509 -0.1350 -0.9586
vn -0.4540 0.1921 -0.8700
vn 0.3551 0.2891 -0.8890
vn 0.3679 -0.8279 -0.4234
vn 0.6767 0.7322 0.0771
vn 0.5736 0.8123 0.1053
vn 0.2038 0.9679 -0.1472
vn 0.0246 0.7449 -0.6667
vn -0.2152 0.3763 -0.9011
vn -0.4190 0.8516 -0.3151
vn -0.4673 -0.4810 -0.7418
vn -0.4190 0.8516 -0.3150
vn 0.2521 0.4605 0.8511
vn 0.6446 0.1269 -0.7539
vt 0.625000 0.500000
vt 0.875000 0.500000
vt 0.875000 0.750000
vt 0.625000 0.750000
vt 0.375000 0.750000
vt 0.477122 0.798330
vt 0.375000 0.000000
vt 0.625000 0.000000
vt 0.500000 0.125000
vt 0.125000 0.500000
vt 0.375000 0.500000
vt 0.125000 0.750000
vt 0.625000 0.250000
vt 0.375000 0.250000
vt 0.495697 0.244084
vt 0.452940 0.625000
vt 0.380076 0.127538
vt 0.593750 0.031250
vt 0.562500 0.062500
vt 0.495697 0.126613
vt 0.437500 0.062500
vt 0.452940 0.163970
vt 0.531602 0.189746
vt 0.429206 0.087922
vt 0.429206 0.216284
vt 0.531602 0.216856
vt 0.403130 0.084526
vt 0.403130 0.193604
vt 0.562500 0.062500
vt 0.437500 0.062500
vt 0.562500 0.187500
vt 0.625000 1.000000
vt 0.535732 0.826942
vt 0.484196 0.132673
vt 0.484196 0.226523
vt 0.395247 0.135123
vt 0.375000 1.000000
vt 0.479466 0.975111
vt 0.393113 0.884011
vt 0.446463 0.903883
vt 0.468401 0.148489
vt 0.480093 0.136782
vt 0.476248 0.140631
vt 0.456891 0.160014
vt 0.468300 0.148590
vt 0.483444 0.250000
s 0
usemtl Material
f 1/1/1 5/2/1 7/3/1 3/4/1
f 4/5/2 3/4/2 37/6/2
f 8/7/3 7/8/3 19/9/3
f 6/10/4 2/11/4 4/5/4 8/12/4
f 5/13/5 6/14/5 20/15/5
f 6/14/6 5/13/6 72/13/6 73/14/6
f 2/11/7 1/1/7 9/16/7
f 1/1/8 3/4/8 9/16/8
f 3/4/7 4/5/7 9/16/7
f 4/5/7 2/11/7 9/16/7
f 6/14/5 8/7/5 21/17/5
f 7/8/7 5/13/7 22/18/7
f 5/13/7 8/7/7 23/9/7
f 7/8/9 11/9/9 24/19/9
f 8/7/5 5/13/5 18/20/5
f 11/9/10 8/7/10 25/21/10
f 5/13/11 10/22/11 26/23/11
f 10/22/12 8/7/12 27/24/12
f 6/14/13 10/22/13 28/25/13
f 10/22/14 5/13/14 29/26/14
f 8/7/15 10/22/15 30/27/15
f 10/22/16 6/14/16 31/28/16
f 5/13/17 11/9/17 32/29/17
f 11/9/18 7/8/18 33/29/18
f 8/7/19 11/9/19 34/30/19
f 11/9/20 5/13/20 35/31/20
f 3/4/2 7/32/2 38/33/2
f 5/13/21 13/34/21 18/20/21
f 13/34/22 8/7/22 18/20/22
f 7/8/23 12/9/23 19/9/23
f 12/9/24 8/7/24 19/9/24
f 6/14/25 14/35/25 20/15/25
f 14/35/26 5/13/26 20/15/26
f 8/7/5 15/36/5 21/17/5
f 15/36/5 6/14/5 21/17/5
f 5/13/24 16/29/24 22/18/24
f 16/29/27 7/8/27 22/18/27
f 8/7/28 17/9/28 23/9/28
f 17/9/29 5/13/29 23/9/29
f 11/9/30 12/9/30 24/19/30
f 12/9/3 7/8/3 24/19/3
f 8/7/31 12/9/31 25/21/31
f 12/9/32 11/9/32 25/21/32
f 13/34/33 26/23/33 46/23/33 45/34/33
f 13/34/34 5/13/34 26/23/34
f 8/7/35 13/34/35 27/24/35
f 13/34/36 10/22/36 27/24/36
f 10/22/37 14/35/37 28/25/37
f 14/35/38 6/14/38 28/25/38
f 5/13/39 14/35/39 29/26/39
f 14/35/40 10/22/40 29/26/40
f 10/22/41 15/36/41 30/27/41
f 15/36/5 8/7/5 30/27/5
f 6/14/5 15/36/5 31/28/5
f 15/36/42 10/22/42 31/28/42
f 11/9/9 16/29/9 32/29/9
f 16/29/30 5/13/30 32/29/30
f 7/8/43 16/29/43 33/29/43
f 16/29/7 11/9/7 33/29/7
f 11/9/44 17/9/44 34/30/44
f 17/9/45 8/7/45 34/30/45
f 5/13/7 17/9/7 35/31/7
f 17/9/46 11/9/46 35/31/46
f 7/32/2 8/37/2 39/38/2
f 8/37/2 4/5/2 40/39/2
f 41/4/2 42/40/2 43/6/2
f 36/40/47 37/6/47 43/6/47 42/40/47
f 36/40/2 4/5/2 37/6/2
f 7/32/48 36/40/48 38/33/48
f 36/40/2 3/4/2 38/33/2
f 8/37/2 36/40/2 39/38/2
f 36/40/2 7/32/2 39/38/2
f 4/5/2 36/40/2 40/39/2
f 36/40/2 8/37/2 40/39/2
f 37/6/49 3/4/49 41/4/49 43/6/49
f 3/4/50 36/40/50 42/40/50 41/4/50
f 44/22/7 45/34/7 46/23/7
f 26/23/51 10/22/51 44/22/51 46/23/51
f 10/22/52 13/34/52 48/41/52
f 13/34/52 45/34/52 49/42/52
f 45/34/7 44/22/7 50/43/7
f 44/22/52 10/22/52 51/44/52
f 53/22/53 57/41/53 65/41/53 61/22/53
f 45/34/54 47/45/54 52/45/54 55/34/54
f 44/22/55 51/44/55 59/44/55 56/22/55
f 10/22/56 48/41/56 57/41/56 53/22/56
f 49/42/57 45/34/57 55/34/57 58/42/57
f 44/22/58 47/45/58 50/43/58
f 47/45/59 45/34/59 50/43/59
f 47/45/60 44/22/60 56/22/60 52/45/60
f 51/44/61 10/22/61 53/22/61 59/44/61
f 58/42/62 55/34/62 63/34/62 66/42/62
f 56/22/63 59/44/63 67/44/63 64/22/63
f 52/45/64 56/22/64 64/22/64 60/45/64
f 57/41/65 54/34/65 62/34/65 65/41/65
f 54/34/66 58/42/66 66/42/66 62/34/66
f 13/34/67 49/42/67 58/42/67 54/34/67
f 48/41/68 13/34/68 54/34/68 57/41/68
f 62/34/7 60/45/7 65/41/7
f 60/45/7 61/22/7 65/41/7
f 63/34/7 60/45/7 66/42/7
f 60/45/7 62/34/7 66/42/7
f 61/22/7 60/45/7 67/44/7
f 60/45/7 64/22/7 67/44/7
f 55/34/69 52/45/69 60/45/69 63/34/69
f 59/44/70 53/22/70 61/22/70 67/44/70
f 69/14/71 71/13/71 70/1/71 68/11/71
f 2/11/72 6/10/72 69/10/72 68/11/72
f 5/2/73 1/1/73 70/1/73 71/2/73
f 1/1/74 2/11/74 68/11/74 70/1/74
f 5/2/75 71/2/75 74/2/75 72/2/75
f 71/13/76 69/14/76 75/14/76 74/13/76
f 69/10/77 6/10/77 73/10/77 75/10/77
f 73/14/78 72/13/78 76/46/78
f 72/13/78 74/13/78 76/46/78
f 75/14/79 76/46/79 79/46/79 78/14/79
f 75/14/78 73/14/78 76/46/78
f 77/13/80 78/14/80 79/46/80
f 76/46/81 74/13/81 77/13/81 79/46/81
f 74/13/82 75/14/82 78/14/82 77/13/82
